{
  "accessors": [
    {
      "bufferView": 2,
      "componentType": 5126,
      "count": 20,
      "max": [
        499.83642578125,
        334.25308227539062,
        8.4353370666503906
      ],
      "min": [
        -353.7501220703125,
        -322.15289306640625,
        0
      ],
      "type": "VEC3"
    },
    {
      "bufferView": 2,
      "byteOffset": 240,
      "componentType": 5126,
      "count": 20,
      "max": [
        1,
        1,
        1
      ],
      "min": [
        -1,
        -1,
        0
      ],
      "type": "VEC3"
    },
    {
      "bufferView": 1,
      "componentType": 5126,
      "count": 20,
      "max": [
        7.8481450080871582,
        6.113074779510498
      ],
      "min": [
        -0.0093725435435771942,
        0.035482004284858704
      ],
      "type": "VEC2"
    },
    {
      "bufferView": 0,
      "componentType": 5125,
      "count": 30,
      "max": [
        19
      ],
      "min": [
        0
      ],
      "type": "SCALAR"
    },
    {
      "bufferView": 2,
      "byteOffset": 480,
      "componentType": 5126,
      "count": 362,
      "max": [
        469.10614013671875,
        331.57232666015625,
        639.5087890625
      ],
      "min": [
        -315.20626831054688,
        -289.97552490234375,
        7.6536407470703125
      ],
      "type": "VEC3"
    },
    {
      "bufferView": 2,
      "byteOffset": 4824,
      "componentType": 5126,
      "count": 362,
      "max": [
        1,
        1,
        1
      ],
      "min": [
        -1,
        -1,
        -1
      ],
      "type": "VEC3"
    },
    {
      "bufferView": 1,
      "byteOffset": 160,
      "componentType": 5126,
      "count": 362,
      "max": [
        7.4217791557312012,
        3.9761464595794678
      ],
      "min": [
        -1.9974050521850586,
        -2.0097787380218506
      ],
      "type": "VEC2"
    },
    {
      "bufferView": 0,
      "byteOffset": 120,
      "componentType": 5125,
      "count": 720,
      "max": [
        361
      ],
      "min": [
        0
      ],
      "type": "SCALAR"
    },
    {
      "bufferView": 2,
      "byteOffset": 9168,
      "componentType": 5126,
      "count": 1561,
      "max": [
        521.92169189453125,
        381.2381591796875,
        638.15728759765625
      ],
      "min": [
        -391.514404296875,
        -370.5086669921875,
        8.3020782470703125
      ],
      "type": "VEC3"
    },
    {
      "bufferView": 2,
      "byteOffset": 27900,
      "componentType": 5126,
      "count": 1561,
      "max": [
        1,
        1,
        1
      ],
      "min": [
        -1,
        -1,
        -1
      ],
      "type": "VEC3"
    },
    {
      "bufferView": 1,
      "byteOffset": 3056,
      "componentType": 5126,
      "count": 1561,
      "max": [
        3.9488649368286133,
        3.9911656379699707
      ],
      "min": [
        -6.2789335250854492,
        -1.2508978843688965
      ],
      "type": "VEC2"
    },
    {
      "bufferView": 0,
      "byteOffset": 3000,
      "componentType": 5125,
      "count": 2487,
      "max": [
        1560
      ],
      "min": [
        0
      ],
      "type": "SCALAR"
    },
    {
      "bufferView": 2,
      "byteOffset": 46632,
      "componentType": 5126,
      "count": 104,
      "max": [
        408.48272705078125,
        -236.32321166992188,
        278.90325927734375
      ],
      "min": [
        -316.05191040039062,
        -319.841064453125,
        8.9168701171875
      ],
      "type": "VEC3"
    },
    {
      "bufferView": 2,
      "byteOffset": 47880,
      "componentType": 5126,
      "count": 104,
      "max": [
        1,
        0,
        0.99965250492095947
      ],
      "min": [
        -1,
        -1,
        -1
      ],
      "type": "VEC3"
    },
    {
      "bufferView": 1,
      "byteOffset": 15544,
      "componentType": 5126,
      "count": 104,
      "max": [
        0.70892834663391113,
        0.98460328578948975
      ],
      "min": [
        0.027228275313973427,
        0.030130770057439804
      ],
      "type": "VEC2"
    },
    {
      "bufferView": 0,
      "byteOffset": 12948,
      "componentType": 5125,
      "count": 156,
      "max": [
        103
      ],
      "min": [
        0
      ],
      "type": "SCALAR"
    },
    {
      "bufferView": 2,
      "byteOffset": 49128,
      "componentType": 5126,
      "count": 186,
      "max": [
        521.92181396484375,
        384.923583984375,
        651.3956298828125
      ],
      "min": [
        -395.748291015625,
        -343.35321044921875,
        259.92034912109375
      ],
      "type": "VEC3"
    },
    {
      "bufferView": 2,
      "byteOffset": 51360,
      "componentType": 5126,
      "count": 186,
      "max": [
        1,
        0.97753030061721802,
        1
      ],
      "min": [
        -1,
        -0.93664246797561646,
        -0.69520395994186401
      ],
      "type": "VEC3"
    },
    {
      "bufferView": 1,
      "byteOffset": 16376,
      "componentType": 5126,
      "count": 186,
      "max": [
        0.97192096710205078,
        0.99859100580215454
      ],
      "min": [
        -2.3146941661834717,
        0.028742505237460136
      ],
      "type": "VEC2"
    },
    {
      "bufferView": 0,
      "byteOffset": 13572,
      "componentType": 5125,
      "count": 402,
      "max": [
        185
      ],
      "min": [
        0
      ],
      "type": "SCALAR"
    },
    {
      "bufferView": 2,
      "byteOffset": 53592,
      "componentType": 5126,
      "count": 176,
      "max": [
        306.53543090820312,
        289.8834228515625,
        502.63824462890625
      ],
      "min": [
        -268.52255249023438,
        -248.12904357910156,
        340.80813598632812
      ],
      "type": "VEC3"
    },
    {
      "bufferView": 2,
      "byteOffset": 55704,
      "componentType": 5126,
      "count": 176,
      "max": [
        0,
        1,
        -3.7715571465923858e-07
      ],
      "min": [
        0,
        -1,
        -6.4426228618685855e-07
      ],
      "type": "VEC3"
    },
    {
      "bufferView": 1,
      "byteOffset": 17864,
      "componentType": 5126,
      "count": 176,
      "max": [
        0.994800865650177,
        0.99074441194534302
      ],
      "min": [
        0.011870776303112507,
        0.018479311838746071
      ],
      "type": "VEC2"
    },
    {
      "bufferView": 0,
      "byteOffset": 15180,
      "componentType": 5125,
      "count": 264,
      "max": [
        175
      ],
      "min": [
        0
      ],
      "type": "SCALAR"
    }
  ],
  "asset": {
    "extras": {
      "author": "Isaac Sauer (https://sketchfab.com/isaacsauer)",
      "license": "CC-BY-4.0 (http://creativecommons.org/licenses/by/4.0/)",
      "source": "https://sketchfab.com/3d-models/house-1-individual-export-f9f622f4a80c40ac9ddfec572ad4142e",
      "title": "House_1_Individual_Export"
    },
    "generator": "Sketchfab-8.66.0",
    "version": "2.0"
  },
  "bufferViews": [
    {
      "buffer": 0,
      "byteLength": 16236,
      "byteOffset": 0,
      "name": "floatBufferViews",
      "target": 34963
    },
    {
      "buffer": 0,
      "byteLength": 19272,
      "byteOffset": 16236,
      "byteStride": 8,
      "name": "floatBufferViews",
      "target": 34962
    },
    {
      "buffer": 0,
      "byteLength": 57816,
      "byteOffset": 35508,
      "byteStride": 12,
      "name": "floatBufferViews",
      "target": 34962
    }
  ],
  "buffers": [
    {
      "byteLength": 93324,
      "uri": "scene.bin"
    }
  ],
  "images": [
    {
      "uri": "textures/Material_98_baseColor.jpeg"
    },
    {
      "uri": "textures/Material_16_baseColor.jpeg"
    },
    {
      "uri": "textures/Material_14_baseColor.jpeg"
    },
    {
      "uri": "textures/Material_45_baseColor.jpeg"
    },
    {
      "uri": "textures/Material_15_baseColor.jpeg"
    },
    {
      "uri": "textures/Material_32_baseColor.jpeg"
    }
  ],
  "materials": [
    {
      "doubleSided": true,
      "emissiveFactor": [
        0,
        0,
        0
      ],
      "name": "Material_98",
      "pbrMetallicRoughness": {
        "baseColorFactor": [
          1,
          1,
          1,
          1
        ],
        "baseColorTexture": {
          "index": 0,
          "texCoord": 0
        },
        "metallicFactor": 0,
        "roughnessFactor": 0.89297135964975516
      }
    },
    {
      "doubleSided": true,
      "emissiveFactor": [
        0,
        0,
        0
      ],
      "name": "Material_16",
      "pbrMetallicRoughness": {
        "baseColorFactor": [
          1,
          1,
          1,
          1
        ],
        "baseColorTexture": {
          "index": 1,
          "texCoord": 0
        },
        "metallicFactor": 0,
        "roughnessFactor": 0.89297135964975516
      }
    },
    {
      "doubleSided": true,
      "emissiveFactor": [
        0,
        0,
        0
      ],
      "name": "Material_14",
      "pbrMetallicRoughness": {
        "baseColorFactor": [
          1,
          1,
          1,
          1
        ],
        "baseColorTexture": {
          "index": 2,
          "texCoord": 0
        },
        "metallicFactor": 0,
        "roughnessFactor": 0.89297135964975516
      }
    },
    {
      "doubleSided": true,
      "emissiveFactor": [
        0,
        0,
        0
      ],
      "name": "Material_45",
      "pbrMetallicRoughness": {
        "baseColorFactor": [
          1,
          1,
          1,
          1
        ],
        "baseColorTexture": {
          "index": 3,
          "texCoord": 0
        },
        "metallicFactor": 0,
        "roughnessFactor": 0.89297135964975516
      }
    },
    {
      "doubleSided": true,
      "emissiveFactor": [
        0,
        0,
        0
      ],
      "name": "Material_15",
      "pbrMetallicRoughness": {
        "baseColorFactor": [
          1,
          1,
          1,
          1
        ],
        "baseColorTexture": {
          "index": 4,
          "texCoord": 0
        },
        "metallicFactor": 0,
        "roughnessFactor": 0.89297135964975516
      }
    },
    {
      "doubleSided": true,
      "emissiveFactor": [
        0,
        0,
        0
      ],
      "name": "Material_32",
      "pbrMetallicRoughness": {
        "baseColorFactor": [
          1,
          1,
          1,
          1
        ],
        "baseColorTexture": {
          "index": 5,
          "texCoord": 0
        },
        "metallicFactor": 0,
        "roughnessFactor": 0.73646456999781118
      }
    }
  ],
  "meshes": [
    {
      "name": "House_1_Material #98_0",
      "primitives": [
        {
          "attributes": {
            "NORMAL": 1,
            "POSITION": 0,
            "TEXCOORD_0": 2
          },
          "indices": 3,
          "material": 0,
          "mode": 4
        }
      ]
    },
    {
      "name": "House_1_Material #16_0",
      "primitives": [
        {
          "attributes": {
            "NORMAL": 5,
            "POSITION": 4,
            "TEXCOORD_0": 6
          },
          "indices": 7,
          "material": 1,
          "mode": 4
        }
      ]
    },
    {
      "name": "House_1_Material #14_0",
      "primitives": [
        {
          "attributes": {
            "NORMAL": 9,
            "POSITION": 8,
            "TEXCOORD_0": 10
          },
          "indices": 11,
          "material": 2,
          "mode": 4
        }
      ]
    },
    {
      "name": "House_1_Material #45_0",
      "primitives": [
        {
          "attributes": {
            "NORMAL": 13,
            "POSITION": 12,
            "TEXCOORD_0": 14
          },
          "indices": 15,
          "material": 3,
          "mode": 4
        }
      ]
    },
    {
      "name": "House_1_Material #15_0",
      "primitives": [
        {
          "attributes": {
            "NORMAL": 17,
            "POSITION": 16,
            "TEXCOORD_0": 18
          },
          "indices": 19,
          "material": 4,
          "mode": 4
        }
      ]
    },
    {
      "name": "House_1_Material #32_0",
      "primitives": [
        {
          "attributes": {
            "NORMAL": 21,
            "POSITION": 20,
            "TEXCOORD_0": 22
          },
          "indices": 23,
          "material": 5,
          "mode": 4
        }
      ]
    }
  ],
  "nodes": [
    {
      "children": [
        1
      ],
      "name": "RootNode (gltf orientation matrix)",
      "rotation": [
        -0.70710678118654746,
        -0,
        -0,
        0.70710678118654757
      ]
    },
    {
      "children": [
        2
      ],
      "name": "RootNode (model correction matrix)"
    },
    {
      "children": [
        3
      ],
      "matrix": [
        1,
        0,
        0,
        0,
        0,
        0,
        1,
        0,
        0,
        -1,
        0,
        0,
        0,
        0,
        0,
        1
      ],
      "name": "f83f11bd4673472384efa02fb46e58c7.fbx"
    },
    {
      "children": [
        4
      ],
      "name": "RootNode"
    },
    {
      "children": [
        5,
        6,
        7,
        8,
        9,
        10
      ],
      "matrix": [
        1,
        0,
        0,
        0,
        0,
        2.2204460492503131e-16,
        -1,
        0,
        0,
        1,
        2.2204460492503131e-16,
        0,
        -19.718719482421875,
        -1.103271484375,
        -27.297592163085938,
        1
      ],
      "name": "House_1"
    },
    {
      "mesh": 0,
      "name": "House_1_Material #98_0"
    },
    {
      "mesh": 1,
      "name": "House_1_Material #16_0"
    },
    {
      "mesh": 2,
      "name": "House_1_Material #14_0"
    },
    {
      "mesh": 3,
      "name": "House_1_Material #45_0"
    },
    {
      "mesh": 4,
      "name": "House_1_Material #15_0"
    },
    {
      "mesh": 5,
      "name": "House_1_Material #32_0"
    }
  ],
  "samplers": [
    {
      "magFilter": 9729,
      "minFilter": 9987,
      "wrapS": 10497,
      "wrapT": 10497
    }
  ],
  "scene": 0,
  "scenes": [
    {
      "name": "OSG_Scene",
      "nodes": [
        0
      ]
    }
  ],
  "textures": [
    {
      "sampler": 0,
      "source": 0
    },
    {
      "sampler": 0,
      "source": 1
    },
    {
      "sampler": 0,
      "source": 2
    },
    {
      "sampler": 0,
      "source": 3
    },
    {
      "sampler": 0,
      "source": 4
    },
    {
      "sampler": 0,
      "source": 5
    }
  ]
}

