{
    "asset" : {
        "generator" : "Khronos glTF Blender I/O v1.2.75",
        "version" : "2.0"
    },
    "scene" : 0,
    "scenes" : [
        {
            "name" : "Scene",
            "nodes" : [
                2,
                31
            ]
        }
    ],
    "nodes" : [
        {
            "name" : "quina_02.obj.cleaner.gles"
        },
        {
            "children" : [
                0
            ],
            "name" : "RootNode (model correction matrix)"
        },
        {
            "children" : [
                1
            ],
            "name" : "RootNode (gltf orientation matrix)",
            "rotation" : [
                -0.7071067690849304,
                0,
                0,
                0.7071067690849304
            ]
        },
        {
            "name" : "Hat",
            "rotation" : [
                -0.32644838094711304,
                0.5474653840065002,
                0.31456491351127625,
                0.7033932209014893
            ],
            "scale" : [
                0.9999999403953552,
                0.9999998807907104,
                1
            ],
            "translation" : [
                2.9942020773887634e-07,
                18.28458023071289,
                -3.2782554626464844e-07
            ]
        },
        {
            "children" : [
                3
            ],
            "name" : "Head",
            "rotation" : [
                -0.07585570216178894,
                0.9960867166519165,
                -0.045219630002975464,
                -0.0035243770107626915
            ],
            "scale" : [
                1,
                1.0000001192092896,
                1
            ],
            "translation" : [
                -2.7567148208618164e-07,
                34.845191955566406,
                6.469781510531902e-08
            ]
        },
        {
            "name" : "Tongue2",
            "rotation" : [
                0.7497618794441223,
                0.26560673117637634,
                -0.23012110590934753,
                0.5606733560562134
            ],
            "scale" : [
                1.0000001192092896,
                1.0000001192092896,
                1.0000001192092896
            ],
            "translation" : [
                2.7418136596679688e-06,
                16.959579467773438,
                1.9073486328125e-06
            ]
        },
        {
            "children" : [
                5
            ],
            "name" : "Tongue",
            "rotation" : [
                0.29631325602531433,
                -0.8806915283203125,
                0.20511573553085327,
                0.307422399520874
            ],
            "scale" : [
                1,
                1.000000238418579,
                1
            ],
            "translation" : [
                -2.7567148208618164e-07,
                34.845191955566406,
                6.469781510531902e-08
            ]
        },
        {
            "name" : "Handsx",
            "rotation" : [
                0.09809893369674683,
                -0.018804511055350304,
                0.0774693489074707,
                0.9919785857200623
            ],
            "scale" : [
                1,
                0.9999999403953552,
                0.9999999403953552
            ],
            "translation" : [
                -4.76837158203125e-07,
                22.854522705078125,
                -9.5367431640625e-07
            ]
        },
        {
            "children" : [
                7
            ],
            "name" : "Armsx3",
            "rotation" : [
                -0.08321334421634674,
                -0.09648151695728302,
                0.03792053088545799,
                0.9911251664161682
            ],
            "scale" : [
                0.9999999403953552,
                0.9999998807907104,
                0.9999998807907104
            ],
            "translation" : [
                5.960464477539062e-07,
                20.016719818115234,
                2.384185791015625e-07
            ]
        },
        {
            "children" : [
                8
            ],
            "name" : "Armsx2",
            "rotation" : [
                0.35271796584129333,
                0.9354687929153442,
                0.003361023496836424,
                0.02183607593178749
            ],
            "scale" : [
                0.9999999403953552,
                0.9999994039535522,
                1
            ],
            "translation" : [
                -6.243586540222168e-06,
                21.898292541503906,
                1.1324882507324219e-06
            ]
        },
        {
            "children" : [
                9
            ],
            "name" : "Armsx",
            "rotation" : [
                0.41660645604133606,
                -0.52067631483078,
                -0.6610974669456482,
                0.343926340341568
            ],
            "scale" : [
                0.9999998807907104,
                0.9999998807907104,
                0.9999999403953552
            ],
            "translation" : [
                -2.7567148208618164e-07,
                34.845191955566406,
                6.469781510531902e-08
            ]
        },
        {
            "name" : "Handdx",
            "rotation" : [
                0.2849499583244324,
                -0.3547373414039612,
                -0.010799426585435867,
                0.8904203176498413
            ],
            "scale" : [
                0.9999998211860657,
                0.9999998211860657,
                0.9999998807907104
            ],
            "translation" : [
                9.5367431640625e-07,
                24.71864128112793,
                1.430511474609375e-06
            ]
        },
        {
            "children" : [
                11
            ],
            "name" : "Armdx3",
            "rotation" : [
                0.20989486575126648,
                -0.7467535734176636,
                -0.14413747191429138,
                0.6144328117370605
            ],
            "translation" : [
                -1.5795230865478516e-06,
                19.132675170898438,
                4.172325134277344e-07
            ]
        },
        {
            "children" : [
                12
            ],
            "name" : "Armdx2",
            "rotation" : [
                -0.3706999719142914,
                -0.8282932043075562,
                0.08848638087511063,
                0.4107095003128052
            ],
            "scale" : [
                1,
                0.9999997615814209,
                1
            ],
            "translation" : [
                9.909272193908691e-07,
                25.2303524017334,
                1.2516975402832031e-06
            ]
        },
        {
            "children" : [
                13
            ],
            "name" : "Armdx",
            "rotation" : [
                -0.62156742811203,
                0.3059154450893402,
                -0.4626888930797577,
                0.5531624555587769
            ],
            "scale" : [
                0.9999999403953552,
                1,
                1
            ],
            "translation" : [
                -2.7567148208618164e-07,
                34.845191955566406,
                6.469781510531902e-08
            ]
        },
        {
            "children" : [
                4,
                6,
                10,
                14
            ],
            "name" : "Body",
            "rotation" : [
                -0.012912792153656483,
                0.08508121967315674,
                0.10181637853384018,
                0.9910741448402405
            ],
            "scale" : [
                0.9999999403953552,
                1.0000001192092896,
                0.9999999403953552
            ],
            "translation" : [
                8.940696716308594e-08,
                25.03533172607422,
                -4.470348358154297e-08
            ]
        },
        {
            "children" : [
                15
            ],
            "name" : "Body2",
            "rotation" : [
                -0.0146193727850914,
                0.6667853593826294,
                -0.03906325623393059,
                0.7440817356109619
            ],
            "scale" : [
                1,
                1,
                0.9999999403953552
            ],
            "translation" : [
                0,
                1,
                0
            ]
        },
        {
            "name" : "Bowdx1",
            "rotation" : [
                -0.4620208740234375,
                0.30825361609458923,
                0.5082319378852844,
                0.6581920385360718
            ],
            "translation" : [
                -0.9920971393585205,
                11.233796119689941,
                2.8165817260742188
            ]
        },
        {
            "name" : "Bowdx2",
            "rotation" : [
                0.09836716204881668,
                -0.31102702021598816,
                -0.6807956099510193,
                0.6558226943016052
            ],
            "translation" : [
                -0.7552528381347656,
                11.601476669311523,
                2.8592777252197266
            ]
        },
        {
            "children" : [
                17,
                18
            ],
            "name" : "Footdx",
            "rotation" : [
                -0.4554865062236786,
                -0.6329137682914734,
                0.4404032230377197,
                0.44496873021125793
            ],
            "scale" : [
                1.0000001192092896,
                1.0000003576278687,
                1.000000238418579
            ],
            "translation" : [
                -1.7881393432617188e-07,
                20.83526039123535,
                -2.575106918811798e-07
            ]
        },
        {
            "children" : [
                19
            ],
            "name" : "Legdx",
            "rotation" : [
                -0.8882502317428589,
                0.45422083139419556,
                -0.059363920241594315,
                0.03422069922089577
            ],
            "scale" : [
                1.0000001192092896,
                1.0000003576278687,
                1
            ],
            "translation" : [
                0,
                1,
                0
            ]
        },
        {
            "name" : "Bowsx1",
            "rotation" : [
                -0.5405676960945129,
                0.27362197637557983,
                0.60979825258255,
                0.5109438896179199
            ],
            "scale" : [
                0.9999999403953552,
                0.9999999403953552,
                0.9999999403953552
            ],
            "translation" : [
                -1.3384175300598145,
                11.046814918518066,
                2.584394931793213
            ]
        },
        {
            "name" : "Bowsx2",
            "rotation" : [
                0.05673569440841675,
                -0.3284900188446045,
                -0.6800604462623596,
                0.6529878973960876
            ],
            "scale" : [
                1,
                1,
                1.0000001192092896
            ],
            "translation" : [
                -1.0258140563964844,
                11.354991912841797,
                2.604713201522827
            ]
        },
        {
            "children" : [
                21,
                22
            ],
            "name" : "Footsx",
            "rotation" : [
                -0.3180120885372162,
                0.7184284329414368,
                -0.6104445457458496,
                0.10043145716190338
            ],
            "scale" : [
                0.9999998807907104,
                0.9999997615814209,
                1
            ],
            "translation" : [
                1.7881393432617188e-07,
                22.68977165222168,
                1.7881393432617188e-07
            ]
        },
        {
            "children" : [
                23
            ],
            "name" : "Legsx",
            "rotation" : [
                0.8762127757072449,
                0.47244957089424133,
                -0.0948772132396698,
                -0.006398320198059082
            ],
            "scale" : [
                0.9999997019767761,
                0.9999995827674866,
                0.9999999403953552
            ],
            "translation" : [
                0,
                1,
                0
            ]
        },
        {
            "name" : "Skirt",
            "rotation" : [
                -0.5227148532867432,
                0.45996972918510437,
                0.546815037727356,
                0.4649626910686493
            ],
            "scale" : [
                0.9999998807907104,
                0.9999998807907104,
                0.9999998807907104
            ],
            "translation" : [
                0,
                1,
                0
            ]
        },
        {
            "name" : "Skirt2",
            "rotation" : [
                0.11934520304203033,
                0.017275050282478333,
                -0.7590227723121643,
                0.6397989988327026
            ],
            "scale" : [
                0.9999999403953552,
                1,
                0.9999999403953552
            ],
            "translation" : [
                0,
                1,
                0
            ]
        },
        {
            "name" : "Skirt3",
            "rotation" : [
                -0.7658063173294067,
                0.031032567843794823,
                0.007863967679440975,
                0.6422739028930664
            ],
            "scale" : [
                0.9999999403953552,
                1,
                1
            ],
            "translation" : [
                0,
                1,
                0
            ]
        },
        {
            "name" : "Skirt4",
            "rotation" : [
                0.550006628036499,
                -0.449828565120697,
                -0.47601866722106934,
                0.5182213187217712
            ],
            "scale" : [
                0.9999998807907104,
                0.9999998807907104,
                0.9999998807907104
            ],
            "translation" : [
                0,
                1,
                0
            ]
        },
        {
            "children" : [
                16,
                20,
                24,
                25,
                26,
                27,
                28
            ],
            "name" : "Base"
        },
        {
            "mesh" : 0,
            "name" : "Mesh_0",
            "skin" : 0
        },
        {
            "children" : [
                30,
                29
            ],
            "name" : "Armature"
        }
    ],
    "materials" : [
        {
            "alphaCutoff" : 0.8899999856948853,
            "alphaMode" : "MASK",
            "doubleSided" : true,
            "emissiveFactor" : [
                1,
                1,
                1
            ],
            "emissiveTexture" : {
                "index" : 0,
                "texCoord" : 0
            },
            "name" : "01___Default",
            "pbrMetallicRoughness" : {}
        }
    ],
    "meshes" : [
        {
            "name" : "Mesh_0",
            "primitives" : [
                {
                    "attributes" : {
                        "POSITION" : 0,
                        "NORMAL" : 1,
                        "TEXCOORD_0" : 2,
                        "JOINTS_0" : 3,
                        "WEIGHTS_0" : 4
                    },
                    "indices" : 5,
                    "material" : 0
                }
            ]
        }
    ],
    "textures" : [
        {
            "source" : 0
        }
    ],
    "images" : [
        {
            "bufferView" : 6,
            "mimeType" : "image/png",
            "name" : "01___Default_baseColor"
        }
    ],
    "skins" : [
        {
            "inverseBindMatrices" : 6,
            "joints" : [
                29,
                16,
                15,
                4,
                3,
                6,
                5,
                10,
                9,
                8,
                7,
                14,
                13,
                12,
                11,
                20,
                19,
                17,
                18,
                24,
                23,
                21,
                22,
                25,
                26,
                27,
                28
            ],
            "name" : "Armature"
        }
    ],
    "accessors" : [
        {
            "bufferView" : 0,
            "componentType" : 5126,
            "count" : 1484,
            "max" : [
                59.43241882324219,
                101.75604248046875,
                72.0587387084961
            ],
            "min" : [
                -74.14227294921875,
                -16.31882667541504,
                -33.770904541015625
            ],
            "type" : "VEC3"
        },
        {
            "bufferView" : 1,
            "componentType" : 5126,
            "count" : 1484,
            "type" : "VEC3"
        },
        {
            "bufferView" : 2,
            "componentType" : 5126,
            "count" : 1484,
            "type" : "VEC2"
        },
        {
            "bufferView" : 3,
            "componentType" : 5123,
            "count" : 1484,
            "type" : "VEC4"
        },
        {
            "bufferView" : 4,
            "componentType" : 5126,
            "count" : 1484,
            "type" : "VEC4"
        },
        {
            "bufferView" : 5,
            "componentType" : 5123,
            "count" : 5811,
            "type" : "SCALAR"
        },
        {
            "bufferView" : 7,
            "componentType" : 5126,
            "count" : 27,
            "type" : "MAT4"
        }
    ],
    "bufferViews" : [
        {
            "buffer" : 0,
            "byteLength" : 17808,
            "byteOffset" : 0
        },
        {
            "buffer" : 0,
            "byteLength" : 17808,
            "byteOffset" : 17808
        },
        {
            "buffer" : 0,
            "byteLength" : 11872,
            "byteOffset" : 35616
        },
        {
            "buffer" : 0,
            "byteLength" : 11872,
            "byteOffset" : 47488
        },
        {
            "buffer" : 0,
            "byteLength" : 23744,
            "byteOffset" : 59360
        },
        {
            "buffer" : 0,
            "byteLength" : 11622,
            "byteOffset" : 83104
        },
        {
            "buffer" : 0,
            "byteLength" : 965099,
            "byteOffset" : 94728
        },
        {
            "buffer" : 0,
            "byteLength" : 1728,
            "byteOffset" : 1059828
        }
    ],
    "buffers" : [
        {
            "byteLength" : 1061556,
            "uri" : "data:application/octet-stream;base64,"
        }
    ]
}
